<?xml version="1.0" encoding="utf-8"?>
<svg version="1.1" xmlns="http://www.w3.org/2000/svg" viewBox="0 0 512 512">
<g>
	<path d="M384,281.6v153.6c0,14.1-11.5,25.6-25.6,25.6H76.8c-14.1,0-25.6-11.5-25.6-25.6V153.6c0-14.1,11.5-25.6,25.6-25.6h153.6
		c14.1,0,25.6-11.5,25.6-25.6c0-14.1-11.5-25.6-25.6-25.6l-153.6,0C34.4,76.8,0,111.2,0,153.6v281.6C0,477.6,34.4,512,76.8,512
		h281.6c42.4,0,76.8-34.4,76.8-76.8V281.6c0-14.1-11.5-25.6-25.6-25.6C395.5,256,384,267.5,384,281.6L384,281.6z"/>
	<path d="M332.8,51.2h128l0,128c0,14.1,11.5,25.6,25.6,25.6s25.6-11.5,25.6-25.6l0-153.6c0-6.7-2.7-13.3-7.5-18.1S493.1,0,486.4,0
		H332.8c-14.1,0-25.6,11.5-25.6,25.6C307.2,39.7,318.7,51.2,332.8,51.2L332.8,51.2z"/>
	<path d="M222.9,325.3L504.5,43.7c10-10,10-26.2,0-36.2s-26.2-10-36.2,0L186.7,289.1c-10,10-10,26.2,0,36.2
		C196.7,335.3,212.9,335.3,222.9,325.3"/>
</g>
</svg>
