<?xml version="1.0" encoding="UTF-8"?>
<svg width="46px" height="56px" viewBox="0 0 46 56" version="1.1" xmlns="http://www.w3.org/2000/svg" xmlns:xlink="http://www.w3.org/1999/xlink">
    <title>Group 2</title>
    <g id="Page-4" stroke="none" stroke-width="1" fill="none" fill-rule="evenodd">
        <g id="Gitcoin_Brand_061218-(1)" transform="translate(-436.000000, -389.000000)">
            <g id="Group-412" transform="translate(436.000000, 389.000000)">
                <g id="Group-2" transform="translate(0.088700, 0.982200)">
                    <path d="M23.2123,11.7843 L23.2123,6.6433 C23.2123,5.8283 22.5503,5.1663 21.7343,5.1663 C20.9183,5.1663 20.2573,5.8283 20.2573,6.6433 L20.2573,11.8973 C21.0083,11.8143 21.7713,11.7673 22.5443,11.7673 C22.7683,11.7673 22.9903,11.7773 23.2123,11.7843" id="Fill-403" fill="#FFFFFF"></path>
                    <path d="M30.3614,23.7728 L30.5994,24.0038 C32.8604,26.1998 34.1054,29.1458 34.1054,32.2978 C34.1054,35.3168 32.9484,38.1738 30.8484,40.3428 L30.7324,40.4608 L31.6874,41.3868 L34.0734,43.2748 C36.9054,40.3018 38.4664,36.4088 38.4664,32.2978 C38.4664,27.9888 36.7744,23.9618 33.7044,20.9448 L32.2064,22.3568 L30.3614,23.7728 Z" id="Fill-404" fill="#0FCE7C"></path>
                    <path d="M33.8647,43.4952 L33.9797,43.3762 C34.0117,43.3432 34.0417,43.3082 34.0727,43.2752 L31.6877,41.3862 L33.8647,43.4952 Z" id="Fill-405" fill="#0FCE7C"></path>
                    <line x1="37.0615" y1="17.7806" x2="25.3465" y2="28.6056" id="Fill-406" fill="#FFFFFF"></line>
                    <g id="Group">
                        <path d="M35.685,50.8128 L22.544,50.8128 C12.335,50.8128 4.029,42.5068 4.029,32.2978 C4.029,22.0878 12.335,13.7828 22.544,13.7828 C26.783,13.7828 30.804,15.1968 34.068,17.8028 L25.047,26.1378 C24.274,25.8228 23.43,25.6478 22.544,25.6478 C18.878,25.6478 15.894,28.6308 15.894,32.2978 C15.894,35.9648 18.878,38.9478 22.544,38.9478 C23.197,38.9478 23.828,38.8518 24.424,38.6758 L35.685,47.1518 L35.685,50.8128 Z M22.544,34.9178 C21.1,34.9178 19.924,33.7428 19.924,32.2978 C19.924,30.8528 21.1,29.6768 22.544,29.6768 C23.99,29.6768 25.165,30.8528 25.165,32.2978 C25.165,33.7428 23.99,34.9178 22.544,34.9178 L22.544,34.9178 Z M29.195,32.2978 C29.195,30.9918 28.815,29.7738 28.163,28.7458 L33.543,23.7748 L33.589,23.8228 L39.954,17.8228 L38.487,16.3558 C34.228,12.0978 28.567,9.7528 22.544,9.7528 C10.113,9.7528 -2.84217094e-14,19.8658 -2.84217094e-14,32.2978 C-2.84217094e-14,44.6058 9.916,54.6358 22.179,54.8328 L22.179,54.8428 L39.715,54.8428 L39.715,45.1418 L27.893,36.2428 C28.711,35.1388 29.195,33.7738 29.195,32.2978 L29.195,32.2978 Z" id="Fill-407" fill="#FFFFFF"></path>
                        <polygon id="Fill-408" fill="#25E899" points="44.3744 7.7524 42.7594 9.3674 41.1444 7.7524 42.7594 6.1374"></polygon>
                        <polygon id="Fill-409" fill="#25E899" points="28.9971 7.9437 28.2251 8.7157 27.4531 7.9437 28.2251 7.1717"></polygon>
                        <path d="M37.0173,1.164 C37.0173,0.521 36.4963,0 35.8533,0 C35.2103,0 34.6893,0.521 34.6893,1.164 C34.6893,1.807 35.2103,2.328 35.8533,2.328 C36.4963,2.328 37.0173,1.807 37.0173,1.164" id="Fill-410" fill="#25E899"></path>
                        <path d="M14.7409,23.8341 C13.9249,23.8341 13.2629,23.1721 13.2629,22.3561 L13.2629,6.6441 C13.2629,5.8271 13.9249,5.1661 14.7409,5.1661 C15.5569,5.1661 16.2179,5.8271 16.2179,6.6441 L16.2179,22.3561 C16.2179,23.1721 15.5569,23.8341 14.7409,23.8341" id="Fill-411" fill="#FFFFFF"></path>
                    </g>
                </g>
            </g>
        </g>
    </g>
</svg>