<svg xmlns="http://www.w3.org/2000/svg" width="44" height="44" viewBox="0 0 44 44">
    <path id="github-1" fill="#fff" d="M22 0A22.163 22.163 0 0 0 0 22.336 22.278 22.278 0 0 0 16.666 44a3.057 3.057 0 0 1-.165-1.061v-3.8H13.75a3.745 3.745 0 0 1-3.466-1.9c-.715-1.34-.826-3.406-2.64-4.691-.55-.447-.11-.893.494-.838A5.779 5.779 0 0 1 11.109 34a2.8 2.8 0 0 0 2.915 1.452 21.849 21.849 0 0 0 3.08-.224 6.9 6.9 0 0 1 2.915-3.628C12.65 30.707 9.13 27.021 9.13 22a9.29 9.29 0 0 1 2.47-6.036c-.494-1.732-1.155-5.305.221-6.7A7.769 7.769 0 0 1 17.6 12a16.706 16.706 0 0 1 5.334-.893 16.445 16.445 0 0 1 5.335.893 7.766 7.766 0 0 1 5.774-2.735c1.32 1.34.715 4.969.165 6.7A9.116 9.116 0 0 1 36.629 22c0 5.026-3.466 8.712-10.779 9.493 2.035 1.061 3.466 4.076 3.466 6.309v5.087c0 .167-.054.335-.054.5A22.227 22.227 0 0 0 44 22.336 22.163 22.163 0 0 0 22 0z"/>
</svg>
