<svg xmlns="http://www.w3.org/2000/svg" id="prefix__undraw_transfer_money_rywa" width="507.706" height="367.864" viewBox="0 0 507.706 367.864">
    <defs>
        <style>
            .prefix__cls-11,.prefix__cls-9{fill:none}.prefix__cls-2{fill:#f2f2f2}.prefix__cls-3{fill:#2f2e41}.prefix__cls-4{fill:#ffb9b9}.prefix__cls-5{opacity:.1}.prefix__cls-6{fill:#262534}.prefix__cls-9{opacity:.2}.prefix__cls-8{fill:#04c399}.prefix__cls-9{stroke:#000;stroke-width:2px}.prefix__cls-11,.prefix__cls-9{stroke-miterlimit:10}.prefix__cls-10{fill:#d4dee5}.prefix__cls-11{stroke:#00261e;stroke-width:3px}.prefix__cls-12{fill:#9f616a}
        </style>
    </defs>
    <ellipse id="prefix__Ellipse_118" cx="172.431" cy="172.03" fill="none" data-name="Ellipse 118" rx="172.431" ry="172.03" transform="translate(44.925)"/>
    <ellipse id="prefix__Ellipse_119" cx="68.372" cy="10.939" class="prefix__cls-2" data-name="Ellipse 119" rx="68.372" ry="10.939" transform="translate(0 345.985)"/>
    <ellipse id="prefix__Ellipse_120" cx="105.791" cy="16.927" class="prefix__cls-2" data-name="Ellipse 120" rx="105.791" ry="16.927" transform="translate(296.123 322.89)"/>
    <path id="prefix__Path_244" d="M859.481 435.945s.9 3-4.2 5.7-6.6 12.91-.6 15.912 7.806 6.905 4.8 9.607-8.406 9.907-1.2 11.709 8.106 5.4 6 6.905 4.8-2.7 4.8-2.7 1.2 7.205 7.505 5.4 24.018-36.027 15.011-40.831-32.116-11.702-32.116-11.702z" class="prefix__cls-3" data-name="Path 244" transform="translate(-481.071 -258.827)"/>
    <path id="prefix__Path_245" d="M879.574 493.673s3.114 10.9-2.336 11.678a21.275 21.275 0 0 0-9.343 3.893l10.121 13.235H896.7l11.681-11.679s-15.571-11.678-12.457-18.685-16.35 1.558-16.35 1.558z" class="prefix__cls-4" data-name="Path 245" transform="translate(-490.283 -287.566)"/>
    <path id="prefix__Path_246" d="M879.574 493.673s3.114 10.9-2.336 11.678a21.275 21.275 0 0 0-9.343 3.893l10.121 13.235H896.7l11.681-11.679s-15.571-11.678-12.457-18.685-16.35 1.558-16.35 1.558z" class="prefix__cls-5" data-name="Path 246" transform="translate(-490.283 -287.566)"/>
    <path id="prefix__Path_247" d="M852.787 727.4l17.907 6.228 12.456.779-.778-10.9-25.693-7.6z" class="prefix__cls-4" data-name="Path 247" transform="translate(-458.824 -385.819)"/>
    <path id="prefix__Path_248" d="M953 774.837s0 10.9 1.557 10.9 22.578-2.336 28.807 0 15.571-6.228 10.9-10.9-12.291-11.678-17.045-10.121-24.219 5.45-24.219 5.45z" class="prefix__cls-6" data-name="Path 248" transform="translate(-536.073 -435.596)"/>
    <path id="prefix__Path_249" d="M823.013 764.974s-9.343 18.685-3.114 20.242 13.236-.778 14.014-1.557 11.678-3.893 13.236-2.336 1.557-6.229 1.557-6.229z" class="prefix__cls-6" data-name="Path 249" transform="translate(-463.307 -435.854)"/>
    <path id="prefix__Path_250" d="M836.786 709.359s-14.793 20.243-3.893 25.692 63.063 5.45 66.956 0 5.45-22.578 0-24.135-63.063-1.557-63.063-1.557z" class="prefix__cls-3" data-name="Path 250" transform="translate(-469.295 -405.931)"/>
    <path id="prefix__Path_251" d="M836.786 709.359s-14.793 20.243-3.893 25.692 63.063 5.45 66.956 0 5.45-22.578 0-24.135-63.063-1.557-63.063-1.557z" data-name="Path 251" opacity="0.2" transform="translate(-469.295 -405.931)"/>
    <circle id="prefix__Ellipse_121" cx="17.907" cy="17.907" r="17.907" class="prefix__cls-4" data-name="Ellipse 121" transform="translate(377.613 175.744)"/>
    <path id="prefix__Path_252" d="M845.987 528.776l15.571-3.114s3.893 12.457 16.35 10.121 15.571-10.121 15.571-10.121 9.343 3.893 10.121 3.893 10.9 3.893 10.9 6.228-11.678 25.692-11.678 25.692l1.557 42.042-57.613-1.557 3.893-41.264z" class="prefix__cls-8" data-name="Path 252" transform="translate(-478.495 -307.097)"/>
    <path id="prefix__Path_253" d="M824.388 576.22s-4.671 41.264-1.557 44.378 15.569 11.679 15.569 11.679v-9.343l-6.229-11.678 6.229-27.25z" class="prefix__cls-4" data-name="Path 253" transform="translate(-465.461 -334.299)"/>
    <path id="prefix__Path_254" d="M983.289 573.692s-2.725 42.432-2.725 43.989-7.007 7.007-9.343 7.007-3.893-3.893-3.893-3.893l5.45-6.228-3.893-31.921z" class="prefix__cls-4" data-name="Path 254" transform="translate(-543.78 -332.939)"/>
    <path id="prefix__Path_255" d="M943.7 692.543s35.035-19.464 35.814 0-17.907 27.25-17.907 27.25-48.271 14.474-50.217 9.184-5.839-13.855-2.725-14.634 7.007-2.336 8.564-.779 21.021-11.678 21.021-11.678z" class="prefix__cls-3" data-name="Path 255" transform="translate(-511.593 -392.229)"/>
    <path id="prefix__Path_256" d="M995.869 697.562s-7.007 3.114-9.343 5.45-12.457 6.228-12.457 6.228" class="prefix__cls-9" data-name="Path 256" transform="translate(-547.407 -399.584)"/>
    <path id="prefix__Path_257" d="M835.81 533.96l-4.671-1.557s-17.128 17.907-11.678 22.578 8.564 6.228 10.121 7.786 9.343 2.336 9.343 2.336z" class="prefix__cls-8" data-name="Path 257" transform="translate(-463.647 -310.724)"/>
    <path id="prefix__Path_258" d="M966.431 544.2l7.007 1.557s5.45 11.678 7.007 13.235-2.336.779-4.672 3.893-4.671 8.564-9.343 8.564-10.9-7.786-10.9-7.786z" class="prefix__cls-8" data-name="Path 258" transform="translate(-537.433 -317.071)"/>
    <path id="prefix__Path_259" d="M801.641 704.749s-29.585-21.021-39.707-5.45 43.6 36.592 51.385 39.706 14.793 6.228 14.793 6.228 7.007-17.128 7.007-20.243-5.45-3.114-7.007-3.114-8.564-1.557-10.121-3.893-16.35-13.234-16.35-13.234z" class="prefix__cls-3" data-name="Path 259" transform="translate(-432.592 -397.428)"/>
    <path id="prefix__Path_260" d="M813.966 705.988s7.786 6.228 14.793 7.786 9.343 5.45 9.343 5.45" class="prefix__cls-9" data-name="Path 260" transform="translate(-461.267 -404.118)"/>
    <path id="prefix__Path_261" d="M837.731 637.725l.622 32.965a4.127 4.127 0 0 0 4.172 4.049l61.345-.689a4.127 4.127 0 0 0 4.073-3.889l1.862-32.275a4.126 4.126 0 0 0-4.12-4.364h-63.828a4.127 4.127 0 0 0-4.126 4.2z" class="prefix__cls-10" data-name="Path 261" transform="translate(-474.053 -365.128)"/>
    <path id="prefix__Path_262" d="M897.5 423.04s1 3.326-4.656 6.319-7.317 14.3-.665 17.627 8.647 7.65 5.321 10.643-9.312 10.975-1.33 12.971 8.98 5.987 6.652 7.65 5.321-2.993 5.321-2.993 1.33 7.982 8.315 5.987 13.953-38.27 6.167-47.612c-7.243-8.689-25.125-10.592-25.125-10.592z" class="prefix__cls-3" data-name="Path 262" transform="translate(-501.02 -251.883)"/>
    <path id="prefix__Path_263" d="M904.13 412.984c0-4.873 14.579-1.371 20.829 5.432 4.328 4.711 10.9 11.8 5.393 16.8s9.442 11.546 13.452 13.531 11.927 8.058 4.778 12.132-7.033 8.186-4.343 9.16-5.931-1.448-5.931-1.448.871 8.045-6.393 8.007-28.1-39.958-23.125-51.054c4.63-10.323-4.66-12.56-4.66-12.56z" class="prefix__cls-3" data-name="Path 263" transform="translate(-509.777 -245.251)"/>
    <path id="prefix__Path_264" d="M885.982 413.24c-19.494-1.174-21.451 13.5-21.451 13.5.135 8.492 13.62 4.354 17.366 5.62 4.519-3.251 13.229-9.4 19.458-13.79a29.461 29.461 0 0 0-15.373-5.33z" class="prefix__cls-3" data-name="Path 264" transform="translate(-488.473 -246.575)"/>
    <path id="prefix__Path_265" d="M751.107 451.324s-17.487-81.953-126.937-141.4" class="prefix__cls-11" data-name="Path 265" transform="translate(-359.151 -191.022)"/>
    <path id="prefix__Path_269" d="M230.1 788.9l2.948-2.19s1.952 10.9-.226 12.534-10.344 4.355-10.344 7.622-18.51 7.622-19.055 2.722 1.633-7.622 1.633-7.622 8.711-8.711 9.8-10.344 3.811-4.9 3.811-4.9z" class="prefix__cls-3" data-name="Path 269" transform="translate(-132.732 -447.548)"/>
    <path id="prefix__Path_270" d="M167 491.039s.082.479.223 1.356c.131.779.31 1.878.528 3.234 2.287 13.953 8.956 55.03 8.5 56.385-.544 1.633-4.355 7.622 0 9.255a3.377 3.377 0 0 1 1.356 1.475 31.639 31.639 0 0 1 2.3 5.433c2.6 7.535 5.373 19.594 6.979 27.945.7 3.669 1.181 6.62 1.323 8.166a4.442 4.442 0 0 1 .016 1.078c-.544 2.178 3.266 9.8 4.9 11.977s4.355 4.355 3.811 6.533 13.61 8.166 15.244 4.355 1.633-5.989 2.178-7.078 1.089-8.711-1.633-9.8-1.089-20.143-3.811-23.954c-.909-1.268-2.3-5.564-3.751-10.73-.572-2.025-1.149-4.181-1.715-6.342-2.3-8.858-4.334-17.77-4.334-17.77l.544-63.7-29.943-3.811-.768 1.693-1.53 3.359z" class="prefix__cls-3" data-name="Path 270" transform="translate(-113.178 -285.247)"/>
    <path id="prefix__Path_271" d="M139.715 722.024s-4.355-4.355-6.533 0-4.355 21.232-8.166 25.043-8.711 22.865-3.266 23.954 11.433-1.633 11.977-4.9 11.973-20.143 11.973-21.776-7.622-7.622-7.622-7.622z" class="prefix__cls-3" data-name="Path 271" transform="translate(-87.53 -411.704)"/>
    <path id="prefix__Path_272" d="M225.813 431.457s-7.077 63.7-8.711 69.685-10.344 28.858-13.066 32.665-20.143 34.843-22.321 36.476-6.533 5.989-6.533 5.989-8.166 8.166-9.255 9.8-10.344-3.267-10.888-6.533.544-8.711 1.089-10.888-1.089-5.444.544-7.078 9.8-9.8 9.8-13.61 14.155-26.132 19.6-31.032 4.355-13.066 4.355-13.066v-33.21l-29.944-9.255s1.633-26.132 5.444-26.132 53.897-8.711 59.886-3.811z" class="prefix__cls-3" data-name="Path 272" transform="translate(-106.665 -255.608)"/>
    <circle id="prefix__Ellipse_122" cx="17.966" cy="17.966" r="17.966" class="prefix__cls-12" data-name="Ellipse 122" transform="translate(57.084 49)"/>
    <path id="prefix__Path_273" d="M198.021 217.35s2.178 8.166 4.9 10.344-7.077 11.433-7.077 11.433l-18.51 1.089-3.266-10.344s5.989-11.977 4.355-19.6 19.598 7.078 19.598 7.078z" class="prefix__cls-12" data-name="Path 273" transform="translate(-116.983 -136.229)"/>
    <path id="prefix__Path_274" d="M201.839 248.18s-4.9.544-5.989 2.178-8.711 6.533-14.7 5.444-9.8-2.722-10.888-2.178S167 265.6 167 265.6l5.989 17.421-1.089 47.91L170.263 344s-3.266-4.355 9.8-1.633 29.943-2.178 35.387-2.722 14.7-2.178 15.244-5.444-1.633-15.244-1.633-15.244l-8.711-36.476-5.444-19.6z" class="prefix__cls-8" data-name="Path 274" transform="translate(-113.178 -157.804)"/>
    <path id="prefix__Path_275" d="M231.271 241.5s4.605-2.443 6.238-.265 22.321 5.444 22.321 7.077 4.355 45.731 3.266 49.542 2.178 8.166 2.178 8.166l3.811 16.333s10.344 31.032 5.989 32.12-8.166 0-9.8 0-1.089-20.688-5.444-26.132-10.344-19.055-11.433-21.777-14.7-40.287-14.155-44.642-2.971-20.422-2.971-20.422z" class="prefix__cls-10" data-name="Path 275" transform="translate(-147.76 -153.581)"/>
    <path id="prefix__Path_276" d="M155.686 248.18s-4.355 0-4.9 1.089-5.989 8.166-8.166 9.8-9.8 8.711-9.8 10.344 15.788 13.61 15.788 13.61 6.533 32.12 3.267 43.009-8.166 37.02-5.989 38.654 7.077 2.178 7.077 0 3.266-25.588 5.989-30.487 10.888-35.931 7.622-44.642-10.888-41.377-10.888-41.377z" class="prefix__cls-10" data-name="Path 276" transform="translate(-94.791 -157.804)"/>
    <path id="prefix__Path_277" d="M292.856 364.847s.544 16.877-5.444 25.587a103.466 103.466 0 0 0-9.8 18.51s-9.8-2.722-11.433-5.989-11.977-.544-11.977-1.633 12.522-6.533 13.61-7.622 4.9-1.089 7.077-3.267 2.722-7.077 2.722-7.077l2.179-14.156z" class="prefix__cls-12" data-name="Path 277" transform="translate(-160.098 -220.574)"/>
    <path id="prefix__Path_278" d="M197.761 153.961a10.353 10.353 0 0 0 4.029-.922 5.4 5.4 0 0 0 1.379-7.988 10.323 10.323 0 0 0-1.914-1.539l-4.138-2.817a20.242 20.242 0 0 0-5.838-3.1 18.226 18.226 0 0 0-5.969-.352 40.331 40.331 0 0 0-11.433 2.079 19.134 19.134 0 0 0-9.264 6.779c-3.5 5.07-3.552 11.907-1.622 17.76s5.6 10.949 9.208 15.943l1.874-9.145a3.375 3.375 0 0 1 1.06-2.189c1.684-1.2 3.743 1.262 5.81 1.246a3.48 3.48 0 0 0 2.946-2.331 13.284 13.284 0 0 0 .653-3.912c.247-2.8 1.226-6.7 3.879-8.245 2.471-1.44 6.561-1.015 9.34-1.267z" class="prefix__cls-3" data-name="Path 278" transform="translate(-110.337 -98.072)"/>
    <path id="prefix__Path_279" d="M233.586 498.77s-1.839 53.186-2.928 54.819 0-54.986 0-54.986z" class="prefix__cls-5" data-name="Path 279" transform="translate(-147.17 -292.539)"/>
    <path id="prefix__Path_280" d="M283.664 257.607h4.355s18.51 25.043 16.332 26.676 0 5.989 0 5.989l4.355 8.166s5.444 4.9 3.811 5.989-3.811 5.444-3.811 5.444-10.888-1.633-14.155 4.9l-7.061-8.914z" class="prefix__cls-10" data-name="Path 280" transform="translate(-175.949 -162.876)"/>
    <path id="prefix__Rectangle_286" d="M0 0H16.169V30.131H0z" class="prefix__cls-3" data-name="Rectangle 286" transform="rotate(-22.438 321.813 -183.255)"/>
    <ellipse id="prefix__Ellipse_123" cx="3.234" cy="2.971" class="prefix__cls-8" data-name="Ellipse 123" rx="3.234" ry="2.971" transform="rotate(-22.438 340.669 -200.307)"/>
    <path id="prefix__Path_281" d="M204.768 324.624s-39.2 32.665-45.731 22.321 7.077-19.055 7.077-19.055 11.977.544 25.587-8.166l13.61-5.989s12.427-17.735 16.661-10.984-7.227 18.512-17.204 21.873z" class="prefix__cls-12" data-name="Path 281" transform="translate(-107.942 -186.339)"/>
    <path id="prefix__Path_282" d="M136.273 289.426l-5.989 2.178v16.332l-2.178 3.266s.544 6.533 2.178 8.166 4.9 1.089 3.811 4.9a20.635 20.635 0 0 0-.544 7.622s9.8 12.522 10.344 10.888S152.061 321 153.15 321s-10.888-31.576-10.888-31.576z" class="prefix__cls-10" data-name="Path 282" transform="translate(-92.255 -179.995)"/>
    <path id="prefix__Path_283" d="M287.272 456.933s5.629-5.444 2.815-5.716-12.614-5.716-14.247-2.994 11.432 8.71 11.432 8.71z" class="prefix__cls-3" data-name="Path 283" transform="translate(-171.663 -265.024)"/>
    <path id="prefix__Path_290" d="M397.64 264.406s-33.953-4.645-58.2 9.565" class="prefix__cls-11" data-name="Path 290" transform="translate(-205.958 -166.143)"/>
</svg>
