<svg xmlns="http://www.w3.org/2000/svg" width="179.833" height="52.567" viewBox="0 0 179.833 52.567">
    <defs>
        <style>
            .prefix__cls-1{fill:#021d17}
        </style>
    </defs>
    <g transform="translate(42.796 2.944)">
        <g transform="translate(.204 .056)">
            <g transform="translate(-43 -3)">
                <g transform="translate(0 .009)">
                    <g>
                        <path d="M39.068 17.694a1.335 1.335 0 0 1 1.223.766 1.379 1.379 0 0 1-.139 1.446l-23.3 29.159a1.545 1.545 0 0 1-.5.374 1.326 1.326 0 0 1-1.206-.012 1.361 1.361 0 0 1-.733-1.565l4.193-16.05-17.254.053A1.335 1.335 0 0 1 .133 31.1a1.429 1.429 0 0 1 .139-1.446L23.59.533A1.291 1.291 0 0 1 25.234.15a1.361 1.361 0 0 1 .773 1.55l-4.193 16.05z" class="prefix__cls-1"/>
                        <path fill="none" stroke="#021d17" d="M40.8 19.759a18.372 18.372 0 0 1 4.869 2.676 1.379 1.379 0 0 1-.139 1.446L22.228 53.04a1.545 1.545 0 0 1-.5.374 1.326 1.326 0 0 1-1.206-.012c-.556-.266-4-3.077-3.825-3.73l7.5-12.174H7.861c-.525.006-5.742-5.013-5.439-5.392Q18.8 11.15 25.813 2.4c.764-.954 4.222 1.422 4.8 1.727a1.361 1.361 0 0 1 .773 1.547l-4.193 16.05z" transform="translate(-1.665 -1.501)"/>
                    </g>
                </g>
                <path d="M198.564 63.1l8.6-43h26.2l-1.72 8.865H215.9l-1.72 8.865h13.364l-1.72 8.865h-13.366L209.15 63.1zm68.277-33.08l-6.484 33.08h-8.6v-4.231h-.265a24.262 24.262 0 0 1-4.863 3.506 11.648 11.648 0 0 1-5.723 1.522q-4.1 0-5.954-2.15T233.1 55.3a23.154 23.154 0 0 1 .529-4.763l4.1-20.509h10.586l-3.836 19.182q-.2.926-.364 1.621a5.592 5.592 0 0 0-.165 1.29 2.752 2.752 0 0 0 .728 2.084 2.852 2.852 0 0 0 2.051.695 4.407 4.407 0 0 0 2.58-.893 15.936 15.936 0 0 0 2.845-2.812l4.1-21.171zm2.382 19.583a20.3 20.3 0 0 1 1.654-8.3 20.96 20.96 0 0 1 4.333-6.417 19.943 19.943 0 0 1 6.021-4.168 16.23 16.23 0 0 1 6.649-1.489 11.876 11.876 0 0 1 5.127.992 8.933 8.933 0 0 1 3.374 2.713 11.379 11.379 0 0 1 1.886 4 19.2 19.2 0 0 1 .6 4.863 13.849 13.849 0 0 1-.232 2.514q-.232 1.257-.529 2.349t-.6 1.919a7.33 7.33 0 0 1-.5 1.158h-17.86q.132 3.308 2.051 4.763a7.763 7.763 0 0 0 4.83 1.456 7.3 7.3 0 0 0 2.911-.662 14.851 14.851 0 0 0 2.646-1.456l3.7 6.616a19.594 19.594 0 0 1-5.094 2.415 23.038 23.038 0 0 1-7.211 1.025 15.012 15.012 0 0 1-5.557-.992 12.349 12.349 0 0 1-4.333-2.845 13.064 13.064 0 0 1-2.845-4.5 16.371 16.371 0 0 1-1.022-5.95zm10.718-6.219H290a4.869 4.869 0 0 0 .2-.959 9.913 9.913 0 0 0 .066-1.158 4.815 4.815 0 0 0-.794-2.845 3.332 3.332 0 0 0-2.911-1.125 5.808 5.808 0 0 0-3.7 1.456 10.224 10.224 0 0 0-2.921 4.635zM310.506 63.9q-4.1 0-5.822-1.952a7.772 7.772 0 0 1-1.72-5.326q0-.992.1-2.051a18 18 0 0 1 .43-2.448l7.013-35.065h10.586l-7.145 35.462a3.613 3.613 0 0 0-.132.761v.5a1.7 1.7 0 0 0 .4 1.29 1.328 1.328 0 0 0 .926.364h.562a2.128 2.128 0 0 0 .629-.132l-.4 7.807a13.8 13.8 0 0 1-2.283.562 18.863 18.863 0 0 1-3.144.228z" class="prefix__cls-1" transform="translate(-141.259 -17.056)"/>
            </g>
        </g>
    </g>
</svg>
