<svg xmlns="http://www.w3.org/2000/svg" width="37.191" height="29.526" viewBox="0 0 37.191 29.526">
    <g id="monogram-medium" transform="translate(-6.784 -9.629)">
        <path id="Path_436" fill="#fff" d="M35.41 50.023a1.441 1.441 0 0 0-.469-1.215l-3.473-4.184V44h10.783l8.334 18.278L57.913 44h10.278v.625l-2.969 2.847a.868.868 0 0 0-.33.833v20.916a.868.868 0 0 0 .33.833l2.9 2.847v.625H53.537V72.9l3-2.916c.3-.3.3-.382.3-.833V52.245l-8.353 21.211h-1.128l-9.723-21.211v14.216a1.961 1.961 0 0 0 .538 1.632l3.907 4.739v.625H31v-.625l3.907-4.739a1.892 1.892 0 0 0 .5-1.632z" data-name="Path 436" transform="translate(-24.216 -34.371)"/>
    </g>
</svg>
