<svg xmlns="http://www.w3.org/2000/svg" width="17.418" height="20.539" viewBox="0 0 17.418 20.539">
    <g>
        <path fill="#023026" d="M15.416 6.982a.527.527 0 0 1 .483.3.544.544 0 0 1-.055.571L6.65 19.361a.61.61 0 0 1-.2.147.523.523 0 0 1-.476 0 .537.537 0 0 1-.289-.618l1.655-6.333-6.809.021a.527.527 0 0 1-.483-.3.564.564 0 0 1 .059-.578L9.308.21a.509.509 0 0 1 .649-.151.537.537 0 0 1 .3.61L8.608 7z"/>
        <path fill="none" d="M17.557 9.112a7.249 7.249 0 0 1 1.921 1.056.544.544 0 0 1-.055.571L10.23 22.245a.61.61 0 0 1-.2.147.523.523 0 0 1-.476 0c-.22-.1-1.578-1.214-1.509-1.472l2.961-4.8H4.561a9.07 9.07 0 0 1-2.146-2.128q6.464-8.269 9.23-11.723c.3-.376 1.666.561 1.893.682a.537.537 0 0 1 .3.61l-1.651 6.325z" transform="translate(-2.116 -1.907)"/>
    </g>
</svg>
