<?xml version="1.0" encoding="utf-8"?>
<svg version="1.1" xmlns="http://www.w3.org/2000/svg" x="0px" y="0px" width="256px" height="256px" viewBox="0 0 256 256">
  <style type="text/css">
    .st0{
      fill: #04c399;
    }
  </style>
  <g>
    <path class="st0" d="M0,0v69.5h69.5V0H0z M54.8,18.3v32.9v3.6h-3.6H18.3h-3.6v-3.6V18.3v-3.6h3.6h32.9h3.6V18.3z"/>
    <path class="st0" d="M0,186.5V256h69.5v-69.5H0z M54.8,204.8v32.9v3.6h-3.6H18.3h-3.6v-3.6v-32.9v-3.6h3.6h32.9h3.6V204.8z"/>
    <path class="st0" d="M186.5,0v69.5H256V0H186.5z M241.3,18.3v32.9v3.6h-3.6h-32.9h-3.6v-3.6V18.3v-3.6h3.6h32.9h3.6V18.3z"/>
    <polygon class="st0" points="241.3,98.7 241.3,160.9 241.3,164.5 237.7,164.5 186.5,164.5 186.5,179.2 256,179.2 256,98.7    "/>
    <polygon class="st0" points="241.3,256 256,256 256,208.4 186.5,208.4 186.5,256 201.2,256 201.2,226.7 201.2,223.1 204.8,223.1 
      237.7,223.1 241.3,223.1 241.3,226.7"/>
    <polygon class="st0" points="142.6,69.5 157.3,69.5 157.3,0 98.7,0 98.7,14.7 139,14.7 142.6,14.7 142.6,18.3"/>
    <polygon class="st0" points="186.5,135.4 201.2,135.4 201.2,98.7 142.6,98.7 142.6,139 142.6,142.6 139,142.6 98.7,142.6 
      98.7,201.2 139,201.2 142.6,201.2 142.6,204.8 142.6,256 157.3,256 157.3,186.5 117,186.5 113.4,186.5 113.4,182.8 113.4,160.9 
      113.4,157.3 117,157.3 157.3,157.3 157.3,117 157.3,113.4 160.9,113.4 182.8,113.4 186.5,113.4 186.5,117"/>
    <rect x="98.7" y="230.3" class="st0" width="14.7" height="25.7"/>
    <rect x="43.9" y="142.6" class="st0" width="25.7" height="14.7"/>
    <polygon class="st0" points="113.4,113.4 113.4,43.9 98.7,43.9 98.7,95.1 98.7,98.7 95.1,98.7 0,98.7 0,157.3 14.7,157.3 
      14.7,117 14.7,113.4 18.3,113.4"/>
  </g>
</svg>
