<svg xmlns="http://www.w3.org/2000/svg" width="231.177" height="287.56" viewBox="0 0 231.177 287.56">
    <defs>
        <style>
            .cls-1,.cls-4,.cls-5{fill:#04c399}.cls-1,.cls-3{opacity:.1}.cls-5{opacity:.3}.cls-6{fill:#fff;opacity:.2}.cls-8{fill:#ffb0b1}
        </style>
    </defs>
    <g id="undraw_science_fqhl" transform="translate(-116.28)">
        <ellipse id="Ellipse_242" cx="38.331" cy="3.846" class="cls-1" data-name="Ellipse 242" rx="38.331" ry="3.846" transform="translate(224.638 279.868)"/>
        <ellipse id="Ellipse_243" cx="29.095" cy="1.796" class="cls-1" data-name="Ellipse 243" rx="29.095" ry="1.796" transform="translate(117.743 280.149)"/>
        <path id="Path_441" fill="#c1fff7" d="M525.354 291.743V221.2h9.606v-21.06h-68.83v21.06h9.606v70.544a69.946 69.946 0 1 0 49.634.006z" data-name="Path 441" opacity="0.9" transform="translate(-237.431 -146.997)"/>
        <path id="Rectangle_747" d="M0 0H49.633V0.95H0z" class="cls-3" data-name="Rectangle 747" transform="translate(238.29 73.984)"/>
        <path id="Path_442" d="M514 592.654s42.118-.739 63.177-11.28 33.092-1.131 31.962 5.265-7.142 18.8-31.208 20.32S514 592.654 514 592.654z" class="cls-4" data-name="Path 442" transform="translate(-290.012 -384.391)"/>
        <path id="Path_443" d="M514 592.654s42.118-.739 63.177-11.28 33.092-1.131 31.962 5.265-7.142 18.8-31.208 20.32S514 592.654 514 592.654z" class="cls-3" data-name="Path 443" transform="translate(-290.012 -384.391)"/>
        <path id="Path_444" d="M465.046 600.947s-4.5 62.42 54.521 63.547 58.659-62.808 58.659-62.808-21.8 23.686-73.322 4.134c-.004.015-26.698-7.13-39.858-4.873z" class="cls-4" data-name="Path 444" transform="translate(-259.095 -399.445)"/>
        <path id="Path_445" d="M578.044 603.919c-1.179 14.379-8.823 59.39-58.445 58.441-48.643-.92-54.151-43.444-54.584-58.4-.27 8.028-.03 61.5 54.573 62.542 59.036 1.108 58.659-62.808 58.659-62.808s-.073.088-.203.225z" class="cls-3" data-name="Path 445" transform="translate(-259.106 -401.453)"/>
        <circle id="Ellipse_244" cx="7.659" cy="7.659" r="7.659" class="cls-5" data-name="Ellipse 244" transform="translate(253.171 166.91)"/>
        <circle id="Ellipse_245" cx="4.74" cy="4.74" r="4.74" class="cls-5" data-name="Ellipse 245" transform="translate(260.465 139.189)"/>
        <circle id="Ellipse_246" cx="4.74" cy="4.74" r="4.74" class="cls-5" data-name="Ellipse 246" transform="translate(249.887 111.831)"/>
        <path id="Path_446" d="M486.7 525.307c-.406 3.229-.325 7.271 2.56 8.778-2.42-1.264 7.5-15.591 6.092-18.517-3.013-6.244-8.285 6.739-8.652 9.739z" class="cls-6" data-name="Path 446" transform="translate(-272.685 -344.83)"/>
        <circle id="Ellipse_247" cx="7.659" cy="7.659" r="7.659" class="cls-5" data-name="Ellipse 247" transform="translate(243.137 23.749)"/>
        <circle id="Ellipse_248" cx="5.693" cy="5.693" r="5.693" class="cls-5" data-name="Ellipse 248" transform="translate(268.079 12.584)"/>
        <circle id="Ellipse_249" cx="2.959" cy="2.959" r="2.959" class="cls-5" data-name="Ellipse 249" transform="translate(254.402)"/>
        <path id="Path_447" fill="#c7fff7" d="M284.365 319.48h-61.9v18.358h9.435v143.224a21.52 21.52 0 1 0 43.04 0V337.838h9.425z" data-name="Path 447" opacity="0.9" transform="translate(-106.19 -222.246)"/>
        <path id="Path_448" d="M286.81 451.918s15.318-5.472 19.581-1.581c0 0-6.2 9.118-11.915 8.752s-7.666-7.171-7.666-7.171z" class="cls-4" data-name="Path 448" transform="translate(-146.759 -303.876)"/>
        <path id="Path_449" d="M286.81 451.918s15.318-5.472 19.581-1.581c0 0-6.2 9.118-11.915 8.752s-7.666-7.171-7.666-7.171z" class="cls-3" data-name="Path 449" transform="translate(-146.759 -303.876)"/>
        <path id="Path_450" d="M294.971 452.083v103.95a13.131 13.131 0 0 1-13.131 13.131 13.13 13.13 0 0 1-13.131-13.13V452.083a17.025 17.025 0 0 1 12.277 1.947c5.957 3.65 13.985-1.947 13.985-1.947z" class="cls-4" data-name="Path 450" transform="translate(-135.346 -305.608)"/>
        <path id="Rectangle_748" d="M0 0H43.038V0.846H0z" class="cls-3" data-name="Rectangle 748" transform="translate(125.705 115.478)"/>
        <path id="Path_451" d="M281.841 730.134A13.131 13.131 0 0 1 268.71 717v6.565a13.13 13.13 0 0 0 13.13 13.13 13.131 13.131 0 0 0 13.131-13.131V717a13.131 13.131 0 0 1-13.13 13.134z" class="cls-3" data-name="Path 451" transform="translate(-135.346 -472.899)"/>
        <circle id="Ellipse_250" cx="2.675" cy="2.675" r="2.675" class="cls-5" data-name="Ellipse 250" transform="translate(143.823 130.917)"/>
        <circle id="Ellipse_251" cx="1.703" cy="1.703" r="1.703" class="cls-5" data-name="Ellipse 251" transform="translate(153.547 122.405)"/>
        <circle id="Ellipse_252" cx="1.703" cy="1.703" r="1.703" class="cls-5" data-name="Ellipse 252" transform="translate(141.632 119.002)"/>
        <path id="Path_452" d="M256.7 490.762c-.406 3.229-.325 7.271 2.56 8.778-2.424-1.264 7.5-15.587 6.092-18.517-3.02-6.236-8.285 6.743-8.652 9.739z" class="cls-6" data-name="Path 452" transform="translate(-127.66 -323.05)"/>
        <circle id="Ellipse_253" cx="6.499" cy="6.499" r="6.499" class="cls-5" data-name="Ellipse 253" transform="translate(145.548 72.75)"/>
        <circle id="Ellipse_254" cx="4.833" cy="4.833" r="4.833" class="cls-5" data-name="Ellipse 254" transform="translate(127.718 63.273)"/>
        <circle id="Ellipse_255" cx="2.512" cy="2.512" r="2.512" class="cls-5" data-name="Ellipse 255" transform="translate(143.963 52.596)"/>
        <path id="Path_485" d="M847.59 434.353c.037-.033.07-.07.1-.1-.03.03-.063.067-.1.1z" class="cls-8" data-name="Path 485" transform="translate(-500.355 -294.614)"/>
        <path id="Path_495" fill="#fff" d="M829.886 413.489a.879.879 0 0 1 1.108.573l2.974 9.366-.225 1.478.218.225.3-1.962-2.974-9.366a.872.872 0 0 0-1.108-.569.858.858 0 0 0-.454.336.839.839 0 0 1 .161-.081z" data-name="Path 495" opacity="0.1" transform="translate(-489.087 -281.334)"/>
        <path id="Path_497" fill="#727a9c" d="M839.86 443.9a.419.419 0 0 1 .107-.089.151.151 0 0 1 .159 0 .371.371 0 0 1 .059.092.292.292 0 0 0 .214.144l-.052.369z" data-name="Path 497" transform="translate(-495.481 -300.628)"/>
    </g>
</svg>
