<svg xmlns="http://www.w3.org/2000/svg" xmlns:xlink="http://www.w3.org/1999/xlink" width="377" height="360" viewBox="0 0 377 360">
  <defs>
    <clipPath id="clip-Artboard_1">
      <rect width="377" height="360"/>
    </clipPath>
  </defs>
  <g id="Artboard_1" data-name="Artboard – 1" clip-path="url(#clip-Artboard_1)">
    <rect width="377" height="360" fill="#fff"/>
    <g id="Group_434" data-name="Group 434" transform="translate(-85 -496)">
      <g id="Group_403" data-name="Group 403" transform="translate(-206 162)">
        <path id="Path_500" data-name="Path 500" d="M189.224,651.641h17.266l42.549-16.65s30.216-12.333,27.749,11.1-6.783,54.882-6.783,54.882-13.566-6.167-20.966-4.317-2.467-37.616-2.467-37.616-60.432,28.983-65.982,25.283-6.783-29.6-6.783-29.6Z" transform="translate(223.607 -106.896)" fill="#2f2e41"/>
        <path id="Path_501" data-name="Path 501" d="M189.224,651.641h17.266l42.549-16.65s30.216-12.333,27.749,11.1-6.783,54.882-6.783,54.882-13.566-6.167-20.966-4.317-2.467-37.616-2.467-37.616-60.432,28.983-65.982,25.283-6.783-29.6-6.783-29.6Z" transform="translate(223.607 -106.896)" opacity="0.1"/>
        <path id="Path_502" data-name="Path 502" d="M247.189,558.82l20.9,30.022,48.716,40.7s45.016,10.483,38.849,17.883-43.782-7.4-43.782-7.4-56.116-40.7-57.966-43.782-22.2-32.066-22.2-32.066Z" transform="translate(192.846 -68.147)" fill="#a0616a"/>
        <path id="Path_503" data-name="Path 503" d="M247.189,558.82l20.9,30.022,48.716,40.7s45.016,10.483,38.849,17.883-43.782-7.4-43.782-7.4-56.116-40.7-57.966-43.782-22.2-32.066-22.2-32.066Z" transform="translate(192.846 -68.147)" fill="#ffb9b9" opacity="0.769"/>
        <path id="Path_504" data-name="Path 504" d="M215.21,507.092l13.566,26.516s-3.083,12.95-8.017,14.183-25.9-16.033-25.9-16.033Z" transform="translate(212.421 -40.662)" fill="#d0cde1"/>
        <path id="Path_505" data-name="Path 505" d="M215.21,507.092l13.566,26.516s-3.083,12.95-8.017,14.183-25.9-16.033-25.9-16.033Z" transform="translate(212.421 -40.662)" fill="#04c399"/>
        <path id="Path_506" data-name="Path 506" d="M570.194,644.006l4.007,16.531a1.033,1.033,0,0,1-.02.558L556,717.9a1.033,1.033,0,0,1-2.009-.2l-2.515-22.13a1.031,1.031,0,0,1,.044-.437l16.686-51.208a1.032,1.032,0,0,1,1.985.077Z" transform="translate(22.941 -112.989)" fill="#a6b3bc"/>
        <path id="Path_507" data-name="Path 507" d="M508.129,575.493l3.7,14.183-16.033,51.8-3.7-16.033Z" transform="translate(83.533 -43.081)" fill="#021d17"/>
        <path id="Path_508" data-name="Path 508" d="M415.8,780.191c.617,1.85,64.132-.617,64.749-1.233a13.387,13.387,0,0,0,1.357-2.467c.58-1.233,1.11-2.467,1.11-2.467l-2.467-19.967-62.9-2.232s-1.572,16.921-1.893,24.666A18.5,18.5,0,0,0,415.8,780.191Z" transform="translate(95.083 -170.697)" fill="#a6b3bc"/>
        <path id="Path_509" data-name="Path 509" d="M444.929,689.965l1.233,17.266H418.413V689.965Z" transform="translate(122.683 -103.904)" fill="#495357" opacity="0.1"/>
        <path id="Path_510" data-name="Path 510" d="M380.5,701.769l.165-.033-.782,7.433H364.467v-7.4Z" transform="translate(151.346 -110.158)" fill="#495357" opacity="0.1"/>
        <path id="Path_511" data-name="Path 511" d="M415.8,808.155c.617,1.85,64.132-.617,64.749-1.233a13.384,13.384,0,0,0,1.357-2.467H415.754A18.5,18.5,0,0,0,415.8,808.155Z" transform="translate(95.083 -198.661)" opacity="0.1"/>
        <path id="Path_530" data-name="Path 530" d="M27.749,0A27.749,27.749,0,1,1,0,27.749,27.749,27.749,0,0,1,27.749,0Z" transform="translate(409.132 402.298)" fill="#ffb9b9"/>
        <path id="Path_512" data-name="Path 512" d="M206.181,454.994s-9.25,16.033-11.1,24.666-27.749-17.266-27.749-17.266l-3.392-8.941s24.358-11.408,22.508-20.658S206.181,454.994,206.181,454.994Z" transform="translate(228.85 -0.281)" fill="#ffb9b9"/>
        <path id="Path_513" data-name="Path 513" d="M231.039,584.722l25.283,33.3,60.432,45.016s43.782,9.25,33.916,16.033-38.233-6.167-38.233-6.167-61.049-32.683-74-46.249-37-36.383-37-36.383Z" transform="translate(208.926 -81.91)" fill="#ffb9b9"/>
        <path id="Path_514" data-name="Path 514" d="M130.008,690.89l7.4,11.716,44.163-13.894a34.724,34.724,0,0,1,28.911,3.488c7.708,4.856,12.641,12.564,1.542,23.972-22.2,22.816-37,10.483-37,10.483s-74.615,35.149-86.948,17.883-12.95-25.9-12.95-25.9S122.608,689.04,130.008,690.89Z" transform="translate(276.04 -136.278)" fill="#021d17"/>
        <path id="Path_515" data-name="Path 515" d="M316.187,775.8s19.733,12.95-3.7,19.116-40.7-2.467-40.7-2.467-20.35,0-20.35-10.483,6.783-11.716,6.783-11.716l20.966,3.083S304.47,766.545,316.187,775.8Z" transform="translate(182.359 -180.484)" fill="#d4dee5"/>
        <path id="Path_516" data-name="Path 516" d="M239.163,376.453a20.691,20.691,0,0,0,5.815,2.083c2.053.244,4.392-.473,5.363-2.3a7.213,7.213,0,0,0,.609-3.262c.074-3.386-.171-7.047-2.316-9.667-1.366-1.668-3.359-2.719-4.773-4.346a20.539,20.539,0,0,1-2.413-3.942c-2.749-5.163-6.82-10.126-12.477-11.614a27.057,27.057,0,0,0-7.283-.557l-14.246.2a24.8,24.8,0,0,0-6.853.738c-4.585,1.386-7.924,5.242-10.982,8.93a55.848,55.848,0,0,0-6.3,8.692,30.5,30.5,0,0,0-3.615,14.944,13.982,13.982,0,0,0,.512,3.954,21.943,21.943,0,0,0,1.554,3.414c2.672,5.247,4.258,11.8,1.249,16.864,5.227-2.135,10.4-4.934,13.846-9.405,1.542-2,2.752-4.341,4.807-5.809s5.4-1.595,6.723.559a6.025,6.025,0,0,1,.68,2.823,12.936,12.936,0,0,0,.779,4.763c.686,1.467,2.318,2.652,3.877,2.212,2.685-.756,2.428-4.877,4.5-6.749,1.57-1.422,3.993-1.15,6.011-1.8a8.921,8.921,0,0,0,5.12-5.043c.764-1.713.753-6.2,2.2-7.125C233.36,373.854,237.483,375.7,239.163,376.453Z" transform="translate(220.482 46.614)" fill="#021d17"/>
        <path id="Path_517" data-name="Path 517" d="M107.556,472.282a7.318,7.318,0,0,1,3.809.01c3.958,1.063,12.832,3.876,14.735,8.157,2.467,5.55,11.1,14.183,11.1,14.183s11.716,11.716,9.25,19.733-11.716,17.266-11.716,17.266,2.467,38.233-9.866,48.1S107.6,582.813,107.6,592.063,69.368,630.3,61.968,612.412c0,0,3.7-33.3,2.467-45.016C63.219,555.849,65,483.8,107.556,472.282Z" transform="translate(283.031 -22.035)" fill="#04c399"/>
        <path id="Path_518" data-name="Path 518" d="M168.8,503.94s37.616,27.749,30.833,39.466c0,0-22.816,11.1-27.749,10.483s-24.05-22.2-28.983-24.05S135.5,494.69,168.8,503.94Z" transform="translate(241.561 -38.126)" fill="#04c399"/>
        <path id="Path_529" data-name="Path 529" d="M132.633,2h0Z" transform="translate(695.592 610.537)" fill="#3f3d56"/>
      </g>
    </g>
  </g>
</svg>
